
<svg
   width="400"
   height="400"
   viewBox="-1.9 -10 34 34"
   xmlns="http://www.w3.org/2000/svg"
   xmlns:svg="http://www.w3.org/2000/svg">

  <g
     transform="translate(148.88889,-46.900002)">
    <path
       style="fill:#FF0000;stroke-width:0.00514278"
       d="m -145.33085,57.807279 c -0.51122,-0.09981 -1.0626,-0.327658 -1.46851,-0.7099 -1.02414,-0.889419 -1.68156,-2.183315 -1.9889,-3.4938 -0.18778,-0.851944 -0.10217,-1.825975 0.16889,-2.62287 0.29815,-0.892439 0.78596,-1.74184 1.4952,-2.392285 1.05293,-0.683867 2.22828,-1.186499 3.4158,-1.59041 0.45276,-0.119474 0.85951,-0.161255 1.30657,0.05873 0.78452,0.353966 1.56325,0.77182 2.1854,1.3647 0.0184,0.294278 -0.39894,0.412182 -0.58285,0.58713 -0.24582,0.109425 -0.52111,0.507394 -0.7686,0.22444 -0.813,-0.574198 -1.57782,-1.267403 -2.56478,-1.52702 -1.03275,-0.153532 -1.83202,0.744976 -2.23218,1.59748 -0.61533,1.331121 -0.77746,2.810575 -0.43723,4.241411 0.29692,1.26656 1.10716,2.448441 2.23491,3.15988 0.48358,0.26134 1.00657,0.753416 1.58799,0.54728 0.6642,-0.390893 0.90962,-1.182517 1.2234,-1.827116 0.10767,-0.295124 0.22972,-0.577057 0.335,-0.85977 0.48034,0.07644 1.0048,0.201711 1.416,0.44331 0.0902,0.77707 -0.45484,1.469056 -1.10802,1.848978 -1.09786,0.660634 -2.44611,0.825233 -3.68347,0.93726 -0.13466,0.03341 -0.36887,0.0063 -0.53462,0.01257 z m 13.75914,-1.751573 c -0.83356,-0.04291 -1.46877,-0.674659 -1.98335,-1.28451 -0.28484,-0.278549 -0.61111,-0.821538 -1.06182,-0.56313 -0.11306,0.442832 0.0131,1.00576 -0.0626,1.461156 -0.35855,0.08672 -0.77677,0.235147 -1.16425,0.18456 -0.0223,-1.861513 0.0497,-3.743338 -0.0472,-5.588901 -0.0257,-0.256979 -0.22953,-0.453835 -0.3656,-0.64006 0.43506,-0.147377 0.92584,-0.262816 1.364,-0.30489 0.1384,0.159298 0.093,0.704605 0.4342,0.49474 0.68381,-0.329711 1.32317,-0.998526 2.14957,-0.64914 0.88054,0.362594 1.46715,1.215568 1.62478,2.106738 0.17143,1.03227 -0.52806,1.899875 -1.41588,2.320795 -0.23674,0.113501 -0.62243,0.292951 -0.3668,0.598228 0.47289,0.639206 1.07904,1.26025 1.8258,1.58625 0.74033,0.07681 -0.23932,0.315063 -0.43296,0.27659 0.16,0.0102 -0.67533,0.01036 -0.49789,0.0016 z m -2.20966,-2.076073 c 0.88796,-0.07805 1.88964,-0.707615 1.94305,-1.687657 0.1326,-0.664929 -0.19405,-1.403146 -0.6101,-1.939285 -0.35473,-0.464846 -1.0464,-0.982055 -1.62258,-0.56121 -0.56755,0.606868 -0.54522,1.512902 -0.584,2.304278 0.14393,0.569911 -0.27086,1.436844 0.17308,1.860501 0.21286,0.07455 0.48767,0.02531 0.70055,0.02337 z m 3.86598,0.513798 c -0.12514,-0.349591 -0.0162,-0.841436 -0.0528,-1.245421 -5.3e-4,-1.158451 -0.005,-2.282084 -0.1008,-3.422425 -0.44955,-0.291285 0.007,-0.320953 0.37753,-0.38872 0.88725,-0.46268 0.68973,0.509592 0.67573,1.090309 -0.0168,1.276416 0.0468,2.605532 -0.0604,3.832593 -0.29027,-0.01482 -0.54442,0.132602 -0.83923,0.133664 z m 2.41197,-0.03409 c -0.65123,-0.112585 -1.08174,-0.952221 -0.6206,-1.490163 0.53912,-0.713339 1.4769,-0.927859 2.1283,-1.46362 0.0457,-0.343707 -0.20362,-0.711371 -0.28778,-1.07985 -0.13402,-0.375045 -0.49244,-0.916041 -0.9531,-0.67218 -0.095,0.193852 -0.46391,0.141569 -0.1679,-0.01376 0.34258,-0.229163 0.69169,-0.655646 1.11455,-0.574151 0.55733,0.157876 0.88859,0.678886 1.0119,1.19318 0.34263,0.982176 0.58618,2.034869 1.08853,2.95557 0.12535,0.23476 0.35222,0.471085 0.4091,0.70365 -0.23091,0.145598 -0.48713,0.424312 -0.7653,0.41404 -0.29345,-0.236103 -0.41909,-0.612904 -0.7117,-0.84857 -0.70477,0.362158 -1.41733,0.881174 -2.246,0.875854 z m 1.17287,-0.412723 c 0.66202,-0.166978 1.13608,-0.965828 0.7098,-1.574029 -0.11079,-0.214756 -0.11492,-0.60182 -0.47148,-0.52325 -0.64352,0.01005 -1.50369,0.525041 -1.34315,1.253602 0.13145,0.437401 0.57396,0.979547 1.10483,0.843677 z m -13.76863,0.380709 c -0.65077,-0.116294 -1.08444,-0.919582 -0.6419,-1.47511 0.53653,-0.724051 1.46708,-0.935589 2.12886,-1.47152 0.0948,-0.30715 -0.19095,-0.650573 -0.2352,-0.98845 -0.13331,-0.402024 -0.48873,-1.031151 -0.998,-0.76671 -0.0579,0.153061 -0.44878,0.169784 -0.2204,0.01566 0.39316,-0.242873 0.76832,-0.760249 1.2725,-0.5762 0.57582,0.213366 0.82055,0.793427 0.96306,1.32091 0.35778,1.049905 0.62352,2.231166 1.28456,3.19325 0.12292,0.149785 0.26799,0.334552 -0.002,0.42753 -0.22847,0.127149 -0.54506,0.490936 -0.7442,0.1552 -0.19601,-0.222673 -0.33293,-0.523802 -0.5719,-0.71485 -0.70108,0.366547 -1.42028,0.880673 -2.23528,0.88029 z m 1.16471,-0.413095 c 0.64959,-0.162966 1.12585,-0.946153 0.7266,-1.552823 -0.10938,-0.323791 -0.22735,-0.727057 -0.69783,-0.5351 -0.63675,0.113966 -1.42532,0.704105 -1.0674,1.416302 0.18628,0.384284 0.56631,0.791731 1.03863,0.671621 z m 16.87338,0.414136 c -0.90889,-0.146427 -1.51866,-0.997319 -1.6899,-1.84496 -0.1727,-0.931767 0.20989,-1.930662 0.8842,-2.602607 0.58373,-0.410748 1.25216,-0.835404 1.97452,-0.645588 0.26753,0.06136 0.51739,0.315804 0.7568,0.34429 0.2027,-0.30454 0.0394,-0.75251 0.0526,-1.095236 -0.0313,-0.225264 -0.17928,-0.449684 -0.3265,-0.57573 0.32748,-0.08646 0.69825,-0.276597 1.0192,-0.26739 0.34416,0.499053 0.19605,1.164438 0.25846,1.742024 0.0331,1.500284 -0.0562,3.031202 0.0473,4.511652 0.34396,0.323034 0.0141,0.315367 -0.31873,0.36776 -0.49223,0.26927 -0.64317,-0.134409 -0.67826,-0.523414 -0.39723,0.04913 -0.78469,0.368212 -1.2072,0.46975 -0.24987,0.08467 -0.50209,0.128189 -0.77254,0.119449 z m 1.05788,-0.349964 c 0.43405,-0.135098 0.83487,-0.555188 0.92313,-1.004632 0.0308,-0.787494 0.0407,-1.580614 -0.0397,-2.374352 -0.61274,-0.449127 -1.21944,-1.136794 -2.05209,-1.01318 -0.57952,0.20022 -0.73015,0.906956 -0.79661,1.393238 -0.13686,1.182669 0.46204,2.391622 1.4791,2.969865 0.14861,0.0582 0.34584,0.05654 0.48616,0.02906 z"
       id="path55" />
  </g>
</svg>
